<svg width="38" height="57" viewBox="0 0 38 57" fill="none" xmlns="http://www.w3.org/2000/svg">
<path fill-rule="evenodd" clip-rule="evenodd" d="M10.6525 43.8923C10.4507 44.3776 10.2949 44.8806 10.187 45.3948C6.07675 40.4143 5.17836 39.2828 4.72684 32.925H4.82459C5.09457 32.0439 5.14577 30.6342 5.63454 30.2864C5.79362 29.3913 5.83587 28.4794 5.76022 27.5735C5.76022 27.4483 5.73229 27.3324 5.71367 27.2118C6.74239 28.5474 7.02169 29.7392 7.87818 31.608C8.73468 33.4768 9.35378 33.769 11.4624 34.1492C12.0386 34.2523 12.6227 34.3051 13.208 34.3069C15.3632 34.3069 17.4579 33.9869 18.2911 32.1088C18.5378 31.5477 18.9475 30.9541 19.2454 30.3374C19.6364 29.5212 20.33 29.0436 20.7489 29.0621C21.1678 29.0806 21.7776 29.5908 22.1454 30.4069C22.676 31.5755 23.3742 32.8693 23.8258 33.2171C24.1426 33.4921 24.5069 33.7073 24.901 33.8525C26.237 34.3672 28.8251 34.3533 30.2495 34.1214C30.3565 34.1214 30.459 34.0843 30.566 34.0611C31.4128 33.8584 32.1658 33.3762 32.7026 32.6931C33.4484 31.7324 34.0102 30.643 34.3597 29.4795C34.6456 28.7503 35.0092 28.0538 35.4443 27.4019C35.4862 27.3463 35.5467 27.2721 35.6212 27.1886C35.6212 27.6524 35.6212 28.1717 35.6212 28.705C35.7032 29.7351 35.8415 30.7599 36.0355 31.7749C35.6398 38.026 34.4482 40.3447 30.5474 45.3298C29.3651 40.6554 21.3633 39.0184 20.3905 40.7713C18.8357 38.7587 11.6952 41.4484 10.6525 43.8923ZM13.3151 26.8176C12.8915 28.2877 16.1499 28.3248 16.7597 30.3327L17.0297 28.6587C17.2717 26.6275 14.7022 26.9057 13.3058 26.8037L13.3151 26.8176ZM29.6071 25.918C29.1882 27.3973 32.4466 27.4251 33.0471 29.4377L33.3217 27.7637C33.5638 25.7325 30.9943 26.0061 29.5978 25.9087L29.6071 25.918ZM5.22025 24.8004C5.22025 20.9932 5.54144 18.0299 6.61671 17.5801C7.31494 16.1425 8.25057 15.7808 9.31654 16.0498C9.52135 14.9971 9.12569 13.7868 8.59038 12.4419C9.4748 12.8407 10.3453 14.2134 10.6944 16.0869C13.087 15.5026 16.1033 15.4979 19.7667 16.0869C20.4109 16.639 21.2461 16.9185 22.0942 16.8659C23.3789 16.8149 24.4216 16.3419 25.5434 16.3744C26.1672 16.3744 26.7676 16.8752 27.4519 16.9448C27.815 16.9819 28.1734 17.0051 28.5365 17.0097C30.2815 17.0583 32.0106 16.6676 33.5637 15.8736C39.9875 12.5857 36.8222 4.51212 30.9477 2.99571C27.4054 2.06825 22.9739 2.61081 19.1569 1.28454C18.1561 0.927465 17.0995 0.510106 15.9544 0L18.0258 2.66182C14.6184 1.52568 12.9566 1.01557 10.578 2.46706C12.0815 2.27229 13.2546 2.36503 13.6456 2.57835C11.7231 3.06991 9.86581 3.96955 8.66951 5.13352C10.2896 5.09944 11.8793 5.57487 13.2127 6.49225C10.2522 6.49225 8.02714 5.98215 5.979 6.19546C4.82459 6.31603 1.64531 7.02091 3.26521 8.67643C3.46204 8.84613 3.69529 8.96865 3.94704 9.03457C4.1988 9.10048 4.46237 9.10805 4.71753 9.05669C4.82924 9.8033 3.28383 9.98416 2.56698 10.4479C1.37068 11.2687 -0.0630249 12.6738 0.00214323 14.2273C0.0352597 14.6142 0.153838 14.9891 0.349389 15.325C0.54494 15.6609 0.812624 15.9496 1.13328 16.1703C0.00214326 18.1273 0.341949 20.65 1.88737 23.6503L3.13487 26.136L3.8843 32.925H3.91223C4.00533 41.5875 5.0713 55.4021 16.634 56.9417C17.8776 57.0595 19.1317 56.9986 20.3579 56.7608C27.8662 58.6158 35.719 49.253 36.352 42.6355C36.6674 39.6942 36.7576 36.7332 36.622 33.7783L36.3101 32.7024C36.3434 32.771 36.3807 32.8376 36.4218 32.9018C36.4218 31.1582 36.352 30.2122 36.7244 28.5149C36.9058 27.4898 36.9651 26.4469 36.9013 25.4079C36.9177 25.333 36.9177 25.2555 36.9013 25.1807C36.8543 24.3809 36.9392 23.5788 37.1527 22.8064C37.6181 21.3595 38.5119 21.1184 37.6181 18.9991C36.8315 16.8706 35.3698 16.3048 33.2984 17.1442C33.2793 17.2451 33.2864 17.3491 33.319 17.4465C33.3516 17.5439 33.4086 17.6314 33.4846 17.7007C34.4156 18.8043 34.0199 19.3005 34.4668 20.8587C34.639 21.4662 34.9323 22.0134 35.1324 22.8295C35.3014 23.4658 35.4228 24.1137 35.4955 24.7679C31.8182 24.3042 28.5691 24.3042 24.9197 25.6305C23.7559 26.0525 22.3455 26.9846 21.3773 27.235C19.9157 27.6199 18.5844 26.5765 17.2624 26.0247C13.822 24.598 10.0603 24.1175 6.37 24.6335C5.97861 24.6503 5.58933 24.7 5.20629 24.7819L5.22025 24.8004ZM13.734 46.9807C13.8881 46.1185 14.2508 45.3068 14.7907 44.6157C15.6472 43.3729 16.1871 43.4517 17.4346 43.6465C19.6419 43.9935 21.8948 43.9258 24.0771 43.4471C25.5108 43.4471 26.9818 45.928 26.8375 47.092C26.6932 48.256 24.5938 49.4941 23.4673 49.4849C22.4619 49.4849 21.4006 48.9423 20.2927 47.8525C18.0398 50.1712 15.7356 49.9022 13.734 46.9807Z" fill="#3C124A"/>
</svg>
