<svg width="90" height="56" viewBox="0 0 90 56" fill="none" xmlns="http://www.w3.org/2000/svg">
<path d="M57.5972 34.1069H67.0806C67.5835 34.1069 68 34.4102 68 34.7845V45.3224C68 45.693 67.5886 46 67.0806 46H57.5972C57.0943 46 56.6778 45.6968 56.6778 45.3224V34.7845C56.6778 34.4139 57.0943 34.1069 57.5972 34.1069ZM29.7716 3.1333C40.9516 -2.56429 41.7898 8.7111 52.7666 1.67334V13.1621C42.2977 20.1025 40.0373 8.88704 29.7716 14.5884V3.1333ZM27.0135 0C28.1919 0 29.1469 0.703776 29.1469 1.57227C29.1469 2.14876 28.7253 2.65413 28.1005 2.92741H28.2021V16.8569H32.4079C32.9108 16.8569 33.3273 17.1602 33.3273 17.5345V45.3262C33.3273 45.6968 32.9159 46.0037 32.4079 46.0037H22.9194C22.4165 46.0037 22 45.7005 22 45.3262V17.5345C22 17.1639 22.4114 16.8569 22.9194 16.8569H25.8299V2.92741H25.9315C25.3017 2.65413 24.8801 2.14876 24.8801 1.57227C24.8801 0.703776 25.835 0 27.0135 0ZM40.2557 24.9728H49.7392C50.2421 24.9728 50.6586 25.276 50.6586 25.6504V45.3262C50.6586 45.6968 50.2471 46.0037 49.7392 46.0037H40.2557C39.7529 46.0037 39.3364 45.7005 39.3364 45.3262V25.6504C39.3414 25.276 39.7529 24.9728 40.2557 24.9728Z" fill="#784AB3"/>
</svg>
