<svg width="90" height="56" viewBox="0 0 90 56" fill="none" xmlns="http://www.w3.org/2000/svg">
<path fill-rule="evenodd" clip-rule="evenodd" d="M13.6043 17.9906C10.1069 18.1395 6.51864 21.1946 4.39925 25.7383C3.29784 28.0933 2.69049 30.6542 2.6156 33.2592C2.20148 36.0751 1.99572 38.9184 2.00007 41.7654C2.69954 46.1319 8.14841 44.8418 8.61706 41.7654L9.28155 32.9615C9.29955 31.7628 9.53671 30.5779 9.98102 29.4669C10.2027 28.9149 10.5071 28.4009 10.8833 27.9429L11.2051 44.0267L11.0442 45.3664H26.0758L25.873 43.8707L26.1668 26.1495C27.4692 25.5795 28.8625 25.2529 30.2796 25.1854C30.1677 25.4075 30.0558 25.6438 29.9439 25.8943C28.7874 28.3666 28.1513 31.0558 28.0763 33.7909C27.6395 36.7521 27.422 39.7424 27.4258 42.7365C28.1253 47.3228 33.8819 45.9689 34.3715 42.7365L35.071 33.5215C35.0869 32.2344 35.3433 30.9621 35.8264 29.7717C36.0642 29.1932 36.3847 28.6534 36.7777 28.1697L37.1205 44.211L36.8896 45.8555H52.7396L52.4948 44.0479L52.7396 30.36V30.6436L52.7956 28.1697C53.1909 28.6545 53.5159 29.1939 53.7609 29.7717C54.2346 30.9377 54.4908 32.1828 54.5163 33.4435L55.2158 42.6586C55.9152 47.0676 62.1615 47.1598 62.1615 42.6586C62.1677 39.6646 61.9526 36.6743 61.518 33.7129C61.4369 30.9779 60.7987 28.2894 59.6434 25.8163C59.5315 25.5824 59.4266 25.3556 59.3147 25.1075C60.8609 25.1208 62.3884 25.4511 63.8053 26.0786L64.099 43.7998L63.8752 45.3664H78.9418L78.7529 44.0267L79.0817 27.9429C79.458 28.4009 79.7623 28.9149 79.984 29.4669C80.4283 30.5779 80.6655 31.7628 80.6835 32.9615L81.3829 41.7654C81.8516 44.8418 87.3144 46.1319 87.9999 41.7654C88.0043 38.9184 87.7985 36.0751 87.3844 33.2592C87.3095 30.6542 86.7022 28.0933 85.6007 25.7383C83.5023 21.1946 79.8651 18.1395 76.3957 17.9906C70.4985 17.4385 64.568 17.3484 58.6572 17.7212C56.2929 17.9055 53.9078 18.0686 52.229 18.3096C51.4694 18.0609 50.6865 17.8923 49.8928 17.8063C47.0949 17.5724 42.4644 17.8063 39.6875 17.7496C38.9256 17.8515 38.1741 18.0223 37.4422 18.26C35.7845 18.026 33.5532 17.8347 31.3358 17.7212C25.4325 17.465 19.5197 17.5454 13.6253 17.9623L13.6043 17.9906ZM71.4505 0.921508C69.9093 0.921508 68.4028 1.38463 67.1214 2.25232C65.84 3.12001 64.8413 4.35329 64.2515 5.7962C63.6617 7.23911 63.5074 8.82685 63.8081 10.3586C64.1088 11.8904 64.8509 13.2975 65.9406 14.4018C67.0304 15.5062 68.4188 16.2583 69.9303 16.5629C71.4418 16.8676 73.0086 16.7113 74.4324 16.1136C75.8562 15.5159 77.0732 14.5038 77.9294 13.2052C78.7856 11.9066 79.2426 10.3799 79.2426 8.81809C79.2435 7.78084 79.0426 6.75358 78.6513 5.7951C78.26 4.83662 77.6861 3.96574 76.9624 3.23228C76.2386 2.49883 75.3793 1.91721 74.4335 1.5207C73.4877 1.12419 72.474 0.920575 71.4505 0.921508ZM44.8076 3.02808e-06C46.4268 -0.00139886 48.0101 0.483996 49.357 1.39476C50.7038 2.30553 51.7539 3.60073 52.3741 5.11647C52.9944 6.6322 53.1571 8.30034 52.8415 9.90979C52.526 11.5192 51.7464 12.9977 50.6015 14.158C49.4565 15.3183 47.9977 16.1083 46.4095 16.4281C44.8213 16.7479 43.1753 16.583 41.6796 15.9544C40.1839 15.3258 38.9059 14.2617 38.0071 12.8968C37.1084 11.5318 36.6295 9.92736 36.6308 8.28645C36.6327 6.08933 37.4948 3.98273 39.0278 2.42912C40.5609 0.875518 42.6396 0.00188011 44.8076 3.02808e-06ZM18.4936 0.921508C20.035 0.920105 21.5422 1.38204 22.8245 2.24887C24.1069 3.11571 25.1067 4.3485 25.6975 5.79129C26.2884 7.23407 26.4437 8.82204 26.1438 10.3543C25.8439 11.8865 25.1024 13.2942 24.0129 14.3993C22.9234 15.5044 21.535 16.2572 20.0233 16.5624C18.5116 16.8677 16.9445 16.7117 15.5203 16.1143C14.0961 15.5168 12.8787 14.5047 12.0222 13.2059C11.1656 11.9072 10.7085 10.3802 10.7085 8.81809C10.7085 6.72501 11.5285 4.71756 12.9883 3.23687C14.448 1.75617 16.4282 0.923386 18.4936 0.921508Z" fill="#784AB3"/>
</svg>
