<svg width="24" height="24" viewBox="0 0 24 24" fill="none" xmlns="http://www.w3.org/2000/svg">
<path d="M12 21C11.4031 20.9976 10.8314 20.8075 10.4083 20.4707C9.98514 20.1339 9.74465 19.6775 9.73875 19.2H14.2387C14.2411 19.4406 14.1838 19.6792 14.07 19.902C13.9245 20.1691 13.7018 20.4046 13.4201 20.5893C13.1384 20.7739 12.8059 20.9024 12.45 20.964H12.3971C12.2664 20.9858 12.1335 20.9978 12 21ZM21 18.3H3V16.5L5.25 15.6V10.65C5.19073 9.3802 5.54918 8.12021 6.2895 6.996C6.65382 6.48054 7.15061 6.03274 7.74711 5.68213C8.3436 5.33152 9.02625 5.08608 9.75 4.962V3H14.25V4.962C17.1514 5.5146 18.75 7.53419 18.75 10.65V15.6L21 16.5V18.3Z" fill="#784AB3"/>
</svg>
