<svg width="24" height="24" viewBox="0 0 24 24" fill="none" xmlns="http://www.w3.org/2000/svg">
<path d="M12 16.5C10.8065 16.5 9.66193 16.0259 8.81802 15.182C7.97411 14.3381 7.5 13.1935 7.5 12C7.5 10.8065 7.97411 9.66193 8.81802 8.81802C9.66193 7.97411 10.8065 7.5 12 7.5C13.1935 7.5 14.3381 7.97411 15.182 8.81802C16.0259 9.66193 16.5 10.8065 16.5 12C16.5 13.1935 16.0259 14.3381 15.182 15.182C14.3381 16.0259 13.1935 16.5 12 16.5ZM12 3C12.2387 3 12.4676 3.09482 12.6364 3.2636C12.8052 3.43239 12.9 3.66131 12.9 3.9V5.7C12.9 5.93869 12.8052 6.16761 12.6364 6.3364C12.4676 6.50518 12.2387 6.6 12 6.6C11.7613 6.6 11.5324 6.50518 11.3636 6.3364C11.1948 6.16761 11.1 5.93869 11.1 5.7V3.9C11.1 3.66131 11.1948 3.43239 11.3636 3.2636C11.5324 3.09482 11.7613 3 12 3ZM12 17.4C12.2387 17.4 12.4676 17.4948 12.6364 17.6636C12.8052 17.8324 12.9 18.0613 12.9 18.3V20.1C12.9 20.3387 12.8052 20.5676 12.6364 20.7364C12.4676 20.9052 12.2387 21 12 21C11.7613 21 11.5324 20.9052 11.3636 20.7364C11.1948 20.5676 11.1 20.3387 11.1 20.1V18.3C11.1 18.0613 11.1948 17.8324 11.3636 17.6636C11.5324 17.4948 11.7613 17.4 12 17.4ZM3.9 11.1H5.7C5.93869 11.1 6.16761 11.1948 6.3364 11.3636C6.50518 11.5324 6.6 11.7613 6.6 12C6.6 12.2387 6.50518 12.4676 6.3364 12.6364C6.16761 12.8052 5.93869 12.9 5.7 12.9H3.9C3.66131 12.9 3.43239 12.8052 3.2636 12.6364C3.09482 12.4676 3 12.2387 3 12C3 11.7613 3.09482 11.5324 3.2636 11.3636C3.43239 11.1948 3.66131 11.1 3.9 11.1ZM18.3 11.1H20.1C20.3387 11.1 20.5676 11.1948 20.7364 11.3636C20.9052 11.5324 21 11.7613 21 12C21 12.2387 20.9052 12.4676 20.7364 12.6364C20.5676 12.8052 20.3387 12.9 20.1 12.9H18.3C18.0613 12.9 17.8324 12.8052 17.6636 12.6364C17.4948 12.4676 17.4 12.2387 17.4 12C17.4 11.7613 17.4948 11.5324 17.6636 11.3636C17.8324 11.1948 18.0613 11.1 18.3 11.1ZM18.3639 5.6361C18.5326 5.80487 18.6274 6.03375 18.6274 6.2724C18.6274 6.51105 18.5326 6.73992 18.3639 6.9087L17.0913 8.1813C17.0083 8.26726 16.909 8.33582 16.7992 8.38299C16.6894 8.43016 16.5713 8.45499 16.4518 8.45603C16.3323 8.45706 16.2137 8.43429 16.1031 8.38904C15.9925 8.34379 15.892 8.27696 15.8075 8.19246C15.723 8.10795 15.6562 8.00747 15.611 7.89686C15.5657 7.78625 15.5429 7.66774 15.544 7.54824C15.545 7.42874 15.5698 7.31064 15.617 7.20084C15.6642 7.09103 15.7327 6.99172 15.8187 6.9087L17.0913 5.6361C17.2601 5.46738 17.489 5.37259 17.7276 5.37259C17.9662 5.37259 18.1951 5.46738 18.3639 5.6361ZM8.1813 15.8187C8.35002 15.9875 8.44481 16.2164 8.44481 16.455C8.44481 16.6936 8.35002 16.9225 8.1813 17.0913L6.9087 18.3639C6.82568 18.4499 6.72637 18.5184 6.61656 18.5656C6.50676 18.6128 6.38866 18.6376 6.26916 18.6386C6.14966 18.6397 6.03115 18.6169 5.92054 18.5716C5.80993 18.5264 5.70945 18.4596 5.62494 18.3751C5.54044 18.2906 5.47361 18.1901 5.42836 18.0795C5.38311 17.9689 5.36034 17.8503 5.36137 17.7308C5.36241 17.6113 5.38724 17.4932 5.43441 17.3834C5.48158 17.2736 5.55014 17.1743 5.6361 17.0913L6.9087 15.8187C7.07747 15.65 7.30635 15.5552 7.545 15.5552C7.78365 15.5552 8.01252 15.65 8.1813 15.8187ZM6.9087 5.6361L8.1813 6.9087C8.34524 7.07844 8.43596 7.30578 8.43391 7.54176C8.43186 7.77774 8.3372 8.00347 8.17034 8.17034C8.00347 8.3372 7.77774 8.43186 7.54176 8.43391C7.30578 8.43596 7.07844 8.34524 6.9087 8.1813L5.637 6.9087C5.47306 6.73896 5.38234 6.51162 5.38439 6.27564C5.38644 6.03966 5.4811 5.81393 5.64796 5.64706C5.81483 5.4802 6.04056 5.38554 6.27654 5.38349C6.51252 5.38144 6.73896 5.47216 6.9087 5.6361ZM17.0913 15.8187L18.3639 17.0913C18.5278 17.261 18.6186 17.4884 18.6165 17.7244C18.6145 17.9603 18.5198 18.1861 18.3529 18.3529C18.1861 18.5198 17.9603 18.6145 17.7244 18.6165C17.4884 18.6186 17.261 18.5278 17.0913 18.3639L15.8187 17.0913C15.7327 17.0083 15.6642 16.909 15.617 16.7992C15.5698 16.6894 15.545 16.5713 15.544 16.4518C15.5429 16.3323 15.5657 16.2137 15.611 16.1031C15.6562 15.9925 15.723 15.892 15.8075 15.8075C15.892 15.723 15.9925 15.6562 16.1031 15.611C16.2137 15.5657 16.3323 15.5429 16.4518 15.544C16.5713 15.545 16.6894 15.5698 16.7992 15.617C16.909 15.6642 17.0083 15.7327 17.0913 15.8187Z" fill="#F3E9FF"/>
</svg>
