<svg width="24" height="24" viewBox="0 0 24 24" fill="none" xmlns="http://www.w3.org/2000/svg">
<path d="M18.4999 21L5.8999 21C5.66121 21 5.43229 20.9052 5.26351 20.7364C5.09472 20.5676 4.9999 20.3387 4.9999 20.1L4.9999 3.9C4.9999 3.66131 5.09472 3.43239 5.26351 3.2636C5.43229 3.09482 5.66121 3 5.8999 3L18.4999 3C18.7386 3 18.9675 3.09482 19.1363 3.2636C19.3051 3.43239 19.3999 3.66131 19.3999 3.9L19.3999 20.1C19.3999 20.3387 19.3051 20.5676 19.1363 20.7364C18.9675 20.9052 18.7386 21 18.4999 21ZM14.8999 12.9L14.8999 15.6L19.3999 12L14.8999 8.4L14.8999 11.1L9.4999 11.1L9.4999 12.9L14.8999 12.9Z" fill="#784AB3"/>
</svg>
