<svg width="134" height="45" viewBox="0 0 134 45" fill="none" xmlns="http://www.w3.org/2000/svg">
<path d="M16.17 36.54L13.83 33.03C13.17 33.15 12.5 33.21 11.82 33.21C9.84 33.21 8.02 32.75 6.36 31.83C4.7 30.89 3.38 29.6 2.4 27.96C1.44 26.3 0.96 24.43 0.96 22.35C0.96 20.27 1.44 18.41 2.4 16.77C3.38 15.11 4.7 13.82 6.36 12.9C8.02 11.98 9.84 11.52 11.82 11.52C13.82 11.52 15.64 11.98 17.28 12.9C18.94 13.82 20.25 15.11 21.21 16.77C22.17 18.41 22.65 20.27 22.65 22.35C22.65 24.09 22.3 25.7 21.6 27.18C20.9 28.64 19.94 29.86 18.72 30.84L23.19 36.54H16.17ZM6.96 22.35C6.96 24.01 7.39 25.33 8.25 26.31C9.11 27.27 10.3 27.75 11.82 27.75C13.32 27.75 14.5 27.26 15.36 26.28C16.24 25.3 16.68 23.99 16.68 22.35C16.68 20.67 16.24 19.35 15.36 18.39C14.5 17.41 13.32 16.92 11.82 16.92C10.3 16.92 9.11 17.41 8.25 18.39C7.39 19.35 6.96 20.67 6.96 22.35ZM42.5426 16.17V33H36.6326V30.6C36.1326 31.36 35.4426 31.98 34.5626 32.46C33.6826 32.92 32.6726 33.15 31.5326 33.15C29.5726 33.15 28.0226 32.51 26.8826 31.23C25.7626 29.93 25.2026 28.17 25.2026 25.95V16.17H31.0526V25.2C31.0526 26.16 31.3026 26.92 31.8026 27.48C32.3226 28.02 33.0026 28.29 33.8426 28.29C34.7026 28.29 35.3826 28.02 35.8826 27.48C36.3826 26.92 36.6326 26.16 36.6326 25.2V16.17H42.5426ZM48.859 14.61C47.819 14.61 46.979 14.33 46.339 13.77C45.719 13.19 45.409 12.47 45.409 11.61C45.409 10.73 45.719 10 46.339 9.42C46.979 8.84 47.819 8.55 48.859 8.55C49.879 8.55 50.699 8.84 51.319 9.42C51.959 10 52.279 10.73 52.279 11.61C52.279 12.47 51.959 13.19 51.319 13.77C50.699 14.33 49.879 14.61 48.859 14.61ZM51.769 16.17V33H45.889V16.17H51.769ZM60.6975 28.11H67.8675V33H54.2175V28.35L60.9075 21.06H54.2775V16.17H67.6275V20.82L60.6975 28.11ZM83.3126 20.16V25.05H69.7226V20.16H83.3126ZM93.2463 28.11H100.416V33H86.7663V28.35L93.4563 21.06H86.8263V16.17H100.176V20.82L93.2463 28.11ZM115.861 20.16V25.05H102.271V20.16H115.861ZM125.795 28.11H132.965V33H119.315V28.35L126.005 21.06H119.375V16.17H132.725V20.82L125.795 28.11Z" fill="#3C124A"/>
</svg>
