<svg width="90" height="56" viewBox="0 0 90 56" fill="none" xmlns="http://www.w3.org/2000/svg">
  <path fill-rule="evenodd" clip-rule="evenodd"
    d="M24.5151 33.3133H65.4849C66.8682 33.3133 68 34.2904 68 35.4845V43.8288C68 45.0229 66.8682 46 65.4849 46H24.5151C23.1318 46 22 45.0229 22 43.8288V35.4845C22 34.2904 23.1318 33.3133 24.5151 33.3133ZM34.3413 26.7772H27.1603C27.2426 26.167 27.4942 25.5905 27.9104 25.0514C28.3267 24.5124 29.1073 23.876 30.2564 23.1423C30.9589 22.693 31.4055 22.3524 31.605 22.1165C31.8002 21.8844 31.8999 21.6598 31.8999 21.4539C31.8999 21.2256 31.8045 21.0347 31.6094 20.8737C31.4142 20.7127 31.1714 20.6341 30.8765 20.6341C30.573 20.6341 30.3215 20.7165 30.1263 20.8849C29.9312 21.0534 29.8011 21.3454 29.736 21.7684L27.3424 21.5999C27.4378 21.016 27.6069 20.563 27.8584 20.2373C28.1099 19.9116 28.4612 19.6608 28.9165 19.4849C29.3718 19.3089 30.0049 19.2228 30.8115 19.2228C31.6527 19.2228 32.3075 19.3052 32.7758 19.4736C33.2442 19.6383 33.6127 19.8929 33.8773 20.2336C34.1461 20.578 34.2805 20.9635 34.2805 21.3866C34.2805 21.8395 34.1244 22.27 33.8209 22.6855C33.513 23.0973 32.9536 23.5503 32.1427 24.0444C31.6614 24.3327 31.3405 24.5348 31.1757 24.6471C31.0153 24.7632 30.8245 24.9129 30.6033 25.1001H34.3413V26.7772ZM33.2181 2.56429V10.1224H30.8028V5.17725C30.4125 5.4318 30.0353 5.6377 29.6667 5.79492C29.2981 5.95215 28.8428 6.10563 28.2877 6.24788V4.56706C29.1029 4.3387 29.736 4.06543 30.1827 3.74723C30.6337 3.42904 30.9849 3.03223 31.2408 2.56429H33.2181ZM29.5929 38.09L27.3337 37.7419C27.5202 37.1204 27.8801 36.645 28.4178 36.3119C28.9512 35.9824 29.7057 35.814 30.6814 35.814C31.8045 35.814 32.6154 35.9937 33.1141 36.3568C33.6127 36.7199 33.8643 37.1729 33.8643 37.7194C33.8643 38.0376 33.7602 38.3296 33.5607 38.5879C33.3569 38.8462 33.0534 39.0745 32.6457 39.273C32.9796 39.3441 33.2311 39.4264 33.4089 39.5238C33.6951 39.6772 33.9163 39.8757 34.0724 40.1227C34.2328 40.3735 34.3109 40.6693 34.3109 41.0137C34.3109 41.4479 34.1808 41.8597 33.9163 42.2603C33.6518 42.6571 33.2788 42.964 32.7845 43.1774C32.2902 43.3908 31.644 43.4993 30.8418 43.4993C30.0613 43.4993 29.4412 43.4207 28.9902 43.2598C28.5392 43.1025 28.1663 42.8704 27.8758 42.5635C27.5852 42.2565 27.3597 41.8709 27.2036 41.4067L29.5973 41.1297C29.6927 41.5452 29.8358 41.8372 30.0353 41.9982C30.2304 42.1592 30.4819 42.2415 30.7898 42.2415C31.1063 42.2415 31.3752 42.1405 31.5877 41.9383C31.8002 41.7362 31.9042 41.4666 31.9042 41.126C31.9042 40.7816 31.8002 40.5158 31.5963 40.3249C31.3925 40.1377 31.115 40.0404 30.7638 40.0404C30.5773 40.0404 30.3171 40.0815 29.9919 40.1602L30.1176 38.6852C30.2477 38.7039 30.3518 38.7114 30.4255 38.7114C30.7334 38.7114 30.9936 38.6253 31.1974 38.4531C31.4055 38.2809 31.5096 38.0788 31.5096 37.8429C31.5096 37.6183 31.4316 37.4349 31.2755 37.3039C31.1193 37.1691 30.9069 37.1017 30.6337 37.1017C30.3518 37.1017 30.1263 37.1729 29.9485 37.3226C29.7707 37.4686 29.6537 37.7231 29.5929 38.09ZM24.5151 0H48.6252C50.0085 0 51.1403 0.977051 51.1403 2.17122V10.5155C51.1403 11.7096 50.0085 12.6867 48.6252 12.6867H24.5151C23.1318 12.6867 22 11.7096 22 10.5155V2.17122C22 0.977051 23.1318 0 24.5151 0ZM24.5151 16.6585H57.003C58.3863 16.6585 59.5181 17.6356 59.5181 18.8298V27.174C59.5181 28.3682 58.3863 29.3452 57.003 29.3452H24.5151C23.1318 29.3452 22 28.3682 22 27.174V18.826C22 17.6318 23.1318 16.6585 24.5151 16.6585Z"
    fill="#784AB3" />
</svg>